<svg width="1409" height="218" viewBox="0 0 1409 218" fill="none" xmlns="http://www.w3.org/2000/svg">
<path d="M1288.7 184.598C1290.2 186.099 1294 188.466 1297.18 185.923C1299.93 183.38 1299.74 180.625 1299.3 179.565L1291.88 157.577C1307.86 159.343 1338.51 163.031 1344.33 162.346C1348.84 161.816 1352.81 160.227 1356.78 157.577C1359.96 155.458 1361.99 151.043 1362.61 149.1L1387.51 53.2026C1388.04 50.2886 1387.73 42.871 1382.22 36.5132C1376.71 30.1553 1367.91 29.6255 1364.2 30.1553C1364.2 30.1553 1230.91 41.8114 1215.85 47.9044C1212.58 49.2289 1208.38 52.9906 1206.05 57.4411C1203.72 61.8916 1203.84 67.4194 1204.2 69.627C1204.2 69.627 1210.29 117.046 1215.85 136.649C1217.21 141.418 1217.44 143.007 1220.36 145.921C1223.8 149.1 1229.72 149.807 1232.54 150.425L1251.09 152.544L1288.7 184.598Z" fill="white"/>
<path d="M1340.36 126.583H1318.61V93.8136L1299.18 126.583H1282.96L1263.56 93.8136V126.583H1241.81V75.1904H1267.64L1291.09 111.899L1314.49 75.1904H1340.36V126.583Z" fill="#111111"/>
<path d="M15.8523 174V43.0909H60.0852C70.3551 43.0909 78.75 44.9446 85.2699 48.652C91.8324 52.3168 96.6903 57.2812 99.8438 63.5455C102.997 69.8097 104.574 76.7983 104.574 84.5114C104.574 92.2244 102.997 99.2344 99.8438 105.541C96.733 111.848 91.9176 116.876 85.3977 120.626C78.8778 124.334 70.5256 126.188 60.3409 126.188H28.6364V112.125H59.8295C66.8608 112.125 72.5071 110.911 76.7685 108.482C81.0298 106.053 84.1193 102.771 86.0369 98.6378C87.9972 94.4616 88.9773 89.7528 88.9773 84.5114C88.9773 79.2699 87.9972 74.5824 86.0369 70.4489C84.1193 66.3153 81.0085 63.0767 76.7045 60.733C72.4006 58.3466 66.6903 57.1534 59.5739 57.1534H31.7045V174H15.8523ZM143.15 43.0909V174H128.065V43.0909H143.15ZM199.672 176.301C193.45 176.301 187.804 175.129 182.733 172.786C177.662 170.399 173.635 166.969 170.652 162.494C167.669 157.977 166.177 152.523 166.177 146.131C166.177 140.506 167.285 135.946 169.501 132.452C171.717 128.915 174.679 126.145 178.386 124.142C182.093 122.139 186.184 120.648 190.659 119.668C195.176 118.645 199.714 117.835 204.274 117.239C210.24 116.472 215.076 115.896 218.784 115.513C222.534 115.087 225.261 114.384 226.966 113.403C228.713 112.423 229.586 110.719 229.586 108.29V107.778C229.586 101.472 227.86 96.571 224.409 93.0767C221 89.5824 215.822 87.8352 208.876 87.8352C201.674 87.8352 196.028 89.4119 191.937 92.5653C187.846 95.7187 184.97 99.0852 183.308 102.665L168.99 97.5511C171.547 91.5852 174.956 86.9403 179.217 83.6165C183.521 80.25 188.208 77.9062 193.279 76.5852C198.393 75.2216 203.422 74.5398 208.365 74.5398C211.518 74.5398 215.14 74.9233 219.231 75.6903C223.365 76.4148 227.349 77.9276 231.184 80.2287C235.062 82.5298 238.279 86.0028 240.836 90.6477C243.393 95.2926 244.672 101.514 244.672 109.312V174H229.586V160.705H228.819C227.797 162.835 226.092 165.115 223.706 167.544C221.319 169.973 218.145 172.04 214.181 173.744C210.218 175.449 205.382 176.301 199.672 176.301ZM201.973 162.75C207.939 162.75 212.967 161.578 217.058 159.234C221.191 156.891 224.302 153.865 226.39 150.158C228.521 146.45 229.586 142.551 229.586 138.46V124.653C228.947 125.42 227.541 126.124 225.368 126.763C223.237 127.359 220.765 127.892 217.953 128.361C215.183 128.787 212.477 129.17 209.835 129.511C207.235 129.81 205.126 130.065 203.507 130.278C199.586 130.79 195.922 131.621 192.512 132.771C189.146 133.879 186.419 135.562 184.331 137.821C182.285 140.037 181.262 143.062 181.262 146.898C181.262 152.139 183.201 156.102 187.079 158.787C191 161.429 195.964 162.75 201.973 162.75ZM287.29 114.938V174H272.205V75.8182H286.779V91.1591H288.058C290.359 86.1733 293.853 82.1676 298.54 79.142C303.228 76.0739 309.279 74.5398 316.694 74.5398C323.342 74.5398 329.158 75.9034 334.144 78.6307C339.13 81.3153 343.008 85.4062 345.778 90.9034C348.548 96.358 349.933 103.261 349.933 111.614V174H334.847V112.636C334.847 104.923 332.844 98.9148 328.839 94.6108C324.833 90.2642 319.336 88.0909 312.347 88.0909C307.532 88.0909 303.228 89.1349 299.435 91.223C295.685 93.3111 292.724 96.358 290.55 100.364C288.377 104.369 287.29 109.227 287.29 114.938ZM392.583 114.938V174H377.498V75.8182H392.072V91.1591H393.35C395.652 86.1733 399.146 82.1676 403.833 79.142C408.521 76.0739 414.572 74.5398 421.987 74.5398C428.635 74.5398 434.451 75.9034 439.437 78.6307C444.423 81.3153 448.301 85.4062 451.071 90.9034C453.841 96.358 455.226 103.261 455.226 111.614V174H440.14V112.636C440.14 104.923 438.137 98.9148 434.132 94.6108C430.126 90.2642 424.629 88.0909 417.64 88.0909C412.825 88.0909 408.521 89.1349 404.728 91.223C400.978 93.3111 398.017 96.358 395.843 100.364C393.67 104.369 392.583 109.227 392.583 114.938ZM523.956 176.045C514.496 176.045 506.335 173.957 499.474 169.781C492.656 165.562 487.393 159.682 483.686 152.139C480.021 144.554 478.189 135.733 478.189 125.676C478.189 115.619 480.021 106.756 483.686 99.0852C487.393 91.3722 492.55 85.3636 499.155 81.0597C505.803 76.7131 513.558 74.5398 522.422 74.5398C527.536 74.5398 532.585 75.392 537.571 77.0966C542.557 78.8011 547.095 81.571 551.186 85.4062C555.277 89.1989 558.537 94.2273 560.966 100.491C563.395 106.756 564.609 114.469 564.609 123.631V130.023H488.928V116.983H549.268C549.268 111.443 548.161 106.5 545.945 102.153C543.771 97.8068 540.661 94.3764 536.612 91.8622C532.607 89.348 527.876 88.0909 522.422 88.0909C516.413 88.0909 511.214 89.5824 506.825 92.5653C502.479 95.5057 499.134 99.3409 496.79 104.071C494.446 108.801 493.274 113.872 493.274 119.284V127.977C493.274 135.392 494.553 141.678 497.109 146.834C499.709 151.947 503.31 155.847 507.912 158.531C512.514 161.173 517.862 162.494 523.956 162.494C527.919 162.494 531.499 161.94 534.695 160.832C537.933 159.682 540.724 157.977 543.068 155.719C545.412 153.418 547.223 150.562 548.501 147.153L563.075 151.244C561.541 156.188 558.963 160.534 555.341 164.284C551.719 167.991 547.244 170.889 541.918 172.977C536.591 175.023 530.604 176.045 523.956 176.045ZM587.557 174V75.8182H602.131V90.6477H603.153C604.943 85.7898 608.182 81.848 612.869 78.8224C617.557 75.7969 622.841 74.2841 628.722 74.2841C629.83 74.2841 631.214 74.3054 632.876 74.348C634.538 74.3906 635.795 74.4545 636.648 74.5398V89.8807C636.136 89.7528 634.964 89.5611 633.132 89.3054C631.342 89.0071 629.446 88.858 627.443 88.858C622.67 88.858 618.409 89.8594 614.659 91.8622C610.952 93.8224 608.011 96.5497 605.838 100.044C603.707 103.496 602.642 107.437 602.642 111.869V174H587.557ZM1107.15 174V127.455H1112.52V144.636H1112.97C1113.36 144.03 1113.91 143.258 1114.61 142.318C1115.32 141.364 1116.33 140.515 1117.65 139.773C1118.99 139.015 1120.79 138.636 1123.06 138.636C1126 138.636 1128.59 139.371 1130.83 140.841C1133.08 142.311 1134.83 144.394 1136.08 147.091C1137.34 149.788 1137.97 152.97 1137.97 156.636C1137.97 160.333 1137.34 163.538 1136.08 166.25C1134.83 168.947 1133.08 171.038 1130.86 172.523C1128.63 173.992 1126.06 174.727 1123.15 174.727C1120.91 174.727 1119.11 174.356 1117.77 173.614C1116.42 172.856 1115.38 172 1114.65 171.045C1113.92 170.076 1113.36 169.273 1112.97 168.636H1112.33V174H1107.15ZM1112.42 156.545C1112.42 159.182 1112.81 161.508 1113.58 163.523C1114.36 165.523 1115.49 167.091 1116.97 168.227C1118.46 169.348 1120.27 169.909 1122.42 169.909C1124.67 169.909 1126.54 169.318 1128.04 168.136C1129.55 166.939 1130.69 165.333 1131.45 163.318C1132.22 161.288 1132.61 159.03 1132.61 156.545C1132.61 154.091 1132.23 151.879 1131.47 149.909C1130.73 147.924 1129.6 146.356 1128.08 145.205C1126.58 144.038 1124.7 143.455 1122.42 143.455C1120.24 143.455 1118.41 144.008 1116.92 145.114C1115.44 146.205 1114.32 147.735 1113.56 149.705C1112.8 151.659 1112.42 153.939 1112.42 156.545ZM1148.38 187.091C1147.47 187.091 1146.66 187.015 1145.95 186.864C1145.24 186.727 1144.74 186.591 1144.47 186.455L1145.83 181.727C1147.14 182.061 1148.29 182.182 1149.29 182.091C1150.29 182 1151.17 181.553 1151.95 180.75C1152.74 179.962 1153.46 178.682 1154.11 176.909L1155.11 174.182L1142.2 139.091H1148.02L1157.65 166.909H1158.02L1167.65 139.091H1173.47L1158.65 179.091C1157.99 180.894 1157.16 182.386 1156.17 183.568C1155.19 184.765 1154.05 185.652 1152.74 186.227C1151.46 186.803 1150 187.091 1148.38 187.091Z" fill="white"/>
<path d="M654.274 174V162.494L697.484 115.193C702.555 109.653 706.731 104.838 710.012 100.747C713.294 96.6136 715.723 92.7358 717.299 89.1136C718.919 85.4489 719.728 81.6136 719.728 77.608C719.728 73.0057 718.62 69.0213 716.404 65.6548C714.231 62.2883 711.248 59.6889 707.456 57.8565C703.663 56.0241 699.402 55.108 694.672 55.108C689.643 55.108 685.254 56.152 681.504 58.2401C677.797 60.2855 674.92 63.1619 672.875 66.8693C670.872 70.5767 669.87 74.9233 669.87 79.9091H654.785C654.785 72.2386 656.554 65.5057 660.091 59.7102C663.627 53.9148 668.443 49.3977 674.537 46.1591C680.673 42.9204 687.555 41.3011 695.183 41.3011C702.853 41.3011 709.65 42.9204 715.574 46.1591C721.497 49.3977 726.142 53.7656 729.508 59.2628C732.875 64.7599 734.558 70.875 734.558 77.608C734.558 82.4233 733.684 87.1321 731.937 91.7344C730.233 96.294 727.25 101.386 722.988 107.011C718.77 112.594 712.91 119.412 705.41 127.466L676.007 158.915V159.938H736.859V174H654.274ZM805.957 175.79C796.326 175.79 788.123 173.169 781.348 167.928C774.572 162.643 769.395 154.994 765.815 144.98C762.235 134.923 760.446 122.778 760.446 108.545C760.446 94.3977 762.235 82.3168 765.815 72.3026C769.437 62.2457 774.636 54.5753 781.412 49.2912C788.23 43.9645 796.412 41.3011 805.957 41.3011C815.502 41.3011 823.663 43.9645 830.439 49.2912C837.257 54.5753 842.456 62.2457 846.035 72.3026C849.657 82.3168 851.468 94.3977 851.468 108.545C851.468 122.778 849.679 134.923 846.099 144.98C842.52 154.994 837.342 162.643 830.566 167.928C823.791 173.169 815.588 175.79 805.957 175.79ZM805.957 161.727C815.502 161.727 822.917 157.125 828.201 147.92C833.485 138.716 836.127 125.591 836.127 108.545C836.127 97.2102 834.913 87.5582 832.484 79.5895C830.098 71.6207 826.646 65.5483 822.129 61.3722C817.654 57.196 812.264 55.108 805.957 55.108C796.497 55.108 789.103 59.7741 783.777 69.1065C778.45 78.3963 775.787 91.5426 775.787 108.545C775.787 119.881 776.98 129.511 779.366 137.438C781.752 145.364 785.183 151.393 789.657 155.527C794.174 159.661 799.608 161.727 805.957 161.727ZM875.758 174V162.494L918.968 115.193C924.039 109.653 928.216 104.838 931.497 100.747C934.778 96.6136 937.207 92.7358 938.784 89.1136C940.403 85.4489 941.213 81.6136 941.213 77.608C941.213 73.0057 940.105 69.0213 937.889 65.6548C935.716 62.2883 932.733 59.6889 928.94 57.8565C925.147 56.0241 920.886 55.108 916.156 55.108C911.127 55.108 906.738 56.152 902.988 58.2401C899.281 60.2855 896.404 63.1619 894.359 66.8693C892.356 70.5767 891.355 74.9233 891.355 79.9091H876.27C876.27 72.2386 878.038 65.5057 881.575 59.7102C885.112 53.9148 889.927 49.3977 896.021 46.1591C902.157 42.9204 909.039 41.3011 916.667 41.3011C924.338 41.3011 931.135 42.9204 937.058 46.1591C942.981 49.3977 947.626 53.7656 950.993 59.2628C954.359 64.7599 956.042 70.875 956.042 77.608C956.042 82.4233 955.169 87.1321 953.422 91.7344C951.717 96.294 948.734 101.386 944.473 107.011C940.254 112.594 934.395 119.412 926.895 127.466L897.491 158.915V159.938H958.343V174H875.758ZM1028.21 175.79C1022.84 175.705 1017.47 174.682 1012.1 172.722C1006.73 170.761 1001.83 167.459 997.399 162.814C992.967 158.126 989.409 151.798 986.724 143.83C984.039 135.818 982.697 125.761 982.697 113.659C982.697 102.068 983.784 91.7983 985.957 82.8494C988.13 73.8579 991.284 66.294 995.417 60.1577C999.551 53.9787 1004.54 49.2912 1010.37 46.0952C1016.26 42.8991 1022.88 41.3011 1030.25 41.3011C1037.58 41.3011 1044.1 42.7713 1049.81 45.7116C1055.57 48.6094 1060.25 52.6577 1063.88 57.8565C1067.5 63.0554 1069.84 69.0426 1070.91 75.8182H1055.31C1053.86 69.9375 1051.05 65.0582 1046.87 61.1804C1042.7 57.3026 1037.16 55.3636 1030.25 55.3636C1020.11 55.3636 1012.12 59.7741 1006.28 68.5952C1000.49 77.4162 997.569 89.7955 997.527 105.733H998.549C1000.94 102.111 1003.77 99.0213 1007.05 96.4645C1010.37 93.8651 1014.04 91.8622 1018.05 90.456C1022.05 89.0497 1026.29 88.3466 1030.77 88.3466C1038.27 88.3466 1045.13 90.2216 1051.35 93.9716C1057.57 97.679 1062.56 102.814 1066.31 109.376C1070.06 115.896 1071.93 123.375 1071.93 131.812C1071.93 139.909 1070.12 147.324 1066.5 154.057C1062.87 160.747 1057.78 166.074 1051.22 170.037C1044.7 173.957 1037.03 175.875 1028.21 175.79ZM1028.21 161.727C1033.58 161.727 1038.39 160.385 1042.65 157.7C1046.96 155.016 1050.35 151.415 1052.82 146.898C1055.33 142.381 1056.59 137.352 1056.59 131.812C1056.59 126.401 1055.37 121.479 1052.95 117.047C1050.56 112.572 1047.26 109.014 1043.04 106.372C1038.86 103.73 1034.09 102.409 1028.72 102.409C1024.67 102.409 1020.9 103.219 1017.41 104.838C1013.91 106.415 1010.84 108.588 1008.2 111.358C1005.6 114.128 1003.56 117.303 1002.06 120.882C1000.57 124.419 999.828 128.148 999.828 132.068C999.828 137.267 1001.04 142.125 1003.47 146.642C1005.94 151.159 1009.31 154.803 1013.57 157.572C1017.87 160.342 1022.75 161.727 1028.21 161.727Z" fill="#F24E1E"/>
</svg>
